# xmcd CD database file
#
# Track frame offsets:
#	150
#	44979
#	88731
#	125924
#	156877
#	194513
#
# Disc length: 3213 seconds
#
# Revision: 0
# Processed by: cddbd v1.5.2PL0 Copyright (c) Steve Scherf et al.
# Submitted via: CDex 1.51
#
DISCID=5b0c8b06
DTITLE=Jonas Kullhammar - Av och med herr.....
DYEAR=2010
DGENRE=Jazz
TTITLE0=Sweet home snake city
TTITLE1=Blau
TTITLE2=October is a long time too
TTITLE3=Rat beat
TTITLE4=Morsan å farsan
TTITLE5=Bristol scream
EXTD=YEAR: 2010
EXTT0=
EXTT1=
EXTT2=
EXTT3=
EXTT4=
EXTT5=
PLAYORDER=
